<svg width="134" height="60" viewBox="0 0 134 60" fill="none" xmlns="http://www.w3.org/2000/svg">
<path d="M98.4296 60C109.381 60 118.048 55.1357 124.429 45.4072C130.81 35.6787 134 22.3529 134 5.42986V5.42986H104.811C104.177 8.86878 102.91 11.629 101.009 13.7104C99.1084 15.7919 96.3479 16.8326 92.7275 16.8326C89.4691 16.8326 85.9392 15.9729 82.1378 14.2534C78.3364 12.5339 74.2182 10.5656 69.7832 8.34842C65.3482 6.13122 60.438 4.18552 55.0527 2.51131C49.6673 0.837104 43.7616 0 37.3354 0C25.7501 0 16.6312 4.88688 9.97872 14.6606C3.32624 24.4344 0 37.6923 0 54.4344V54.4344H29.1895C29.823 51.086 31.2486 48.371 33.4661 46.2896C35.6836 44.2081 38.6478 43.1674 42.3587 43.1674C45.436 43.1674 48.8301 44.0045 52.541 45.6787C56.2519 47.3529 60.4154 49.3213 65.0314 51.5837C69.6474 53.8462 74.7386 55.8145 80.305 57.4887C85.8713 59.1629 91.9129 60 98.4296 60Z" fill="#F94F4F"/>
</svg>
